<svg width="16" height="16" viewBox="0 0 16 16" fill="none" xmlns="http://www.w3.org/2000/svg">
<g clip-path="url(#clip0_125_21403)">
<path d="M6 1.33301V2.66602H10V1.33301H11.333V2.66602H12.667C13.4022 2.66619 14 3.26478 14 4V8.25684C13.5308 8.09095 13.026 8 12.5 8C12.0963 8 11.7052 8.05364 11.333 8.15332V8H10V8.75781C9.29903 9.22703 8.73821 9.88838 8.39062 10.666H7.33301V12H8.02832C8.01017 12.1642 8 12.331 8 12.5C8 13.2854 8.20199 14.0233 8.55566 14.666H3.33301C2.59782 14.6658 2 14.0682 2 13.333V4C2 3.26478 2.59782 2.66619 3.33301 2.66602H4.66699V1.33301H6ZM4.66699 10.666V12H6V10.666H4.66699ZM4.66699 8V9.33301H6V8H4.66699ZM7.33301 8V9.33301H8.66699V8H7.33301ZM3.33301 4.66602V6H12.667V4.66602H3.33301Z" fill="#C4CADA"/>
<path d="M6 12H4.66699V10.667H6V12ZM8.38965 10.667C8.20431 11.082 8.08029 11.53 8.02832 12H7.33398V10.667H8.38965ZM6 9.33301H4.66699V8H6V9.33301ZM8.66699 9.33301H7.33398V8H8.66699V9.33301ZM11.334 8.15234C10.8527 8.28108 10.4034 8.48781 10 8.75781V8H11.334V8.15234Z" fill="white"/>
<path d="M2 4.16699C2 3.33856 2.67157 2.66699 3.5 2.66699H12.5C13.3284 2.66699 14 3.33856 14 4.16699V6.22255H2V4.16699Z" fill="#99A1B7"/>
<circle cx="12.5" cy="12.5" r="3.5" fill="#99A1B7"/>
<path d="M11 12.5H14" stroke="white" stroke-linecap="round"/>
<path d="M12.5 11L12.5 14" stroke="white" stroke-linecap="round"/>
</g>
<defs>
<clipPath id="clip0_125_21403">
<rect width="16" height="16" fill="white"/>
</clipPath>
</defs>
</svg>
