<svg width="16" height="16" viewBox="0 0 16 16" fill="none" xmlns="http://www.w3.org/2000/svg">
<path d="M3.5 9C4.05228 9 4.5 8.55228 4.5 8C4.5 7.44772 4.05228 7 3.5 7C2.94772 7 2.5 7.44772 2.5 8C2.5 8.55228 2.94772 9 3.5 9Z" fill="#78829D"/>
<path d="M8 9C8.55228 9 9 8.55228 9 8C9 7.44772 8.55228 7 8 7C7.44772 7 7 7.44772 7 8C7 8.55228 7.44772 9 8 9Z" fill="#78829D"/>
<path d="M12.5 9C13.0523 9 13.5 8.55228 13.5 8C13.5 7.44772 13.0523 7 12.5 7C11.9477 7 11.5 7.44772 11.5 8C11.5 8.55228 11.9477 9 12.5 9Z" fill="#78829D"/>
</svg>
