<svg width="6" height="6" viewBox="0 0 6 6" fill="none" xmlns="http://www.w3.org/2000/svg">
<path fill-rule="evenodd" clip-rule="evenodd" d="M0.621612 0.632066C0.699577 0.554361 0.805271 0.510715 0.915466 0.510715C1.02566 0.510715 1.13135 0.554361 1.20932 0.632066L2.99463 2.41355L4.77993 0.632066C4.81802 0.591297 4.86393 0.558599 4.91494 0.535921C4.96595 0.513243 5.02101 0.50105 5.07684 0.500065C5.13267 0.49908 5.18811 0.509332 5.2399 0.530201C5.29168 0.551069 5.3387 0.582129 5.37818 0.621532C5.41771 0.660935 5.44881 0.707873 5.46972 0.759536C5.49062 0.811204 5.50093 0.866546 5.49993 0.922259C5.49894 0.977977 5.48674 1.03292 5.46401 1.08382C5.44127 1.13472 5.40851 1.18053 5.36764 1.21852L3.58234 3L5.36764 4.78148C5.40851 4.81949 5.44127 4.8653 5.46401 4.91619C5.48674 4.96709 5.49894 5.02203 5.49993 5.07774C5.50093 5.13346 5.49062 5.18878 5.46972 5.24046C5.44881 5.29213 5.41771 5.33905 5.37818 5.37844C5.3387 5.41789 5.29168 5.44892 5.2399 5.46978C5.18811 5.49064 5.13267 5.50093 5.07684 5.49993C5.02101 5.49894 4.96595 5.48677 4.91494 5.46408C4.86393 5.4414 4.81802 5.4087 4.77993 5.36793L2.99463 3.58645L1.20932 5.36793C1.13049 5.44123 1.02623 5.48112 0.918499 5.47924C0.810771 5.47731 0.707988 5.43376 0.631797 5.35775C0.555611 5.28173 0.51197 5.17916 0.510069 5.07166C0.508167 4.96416 0.548159 4.86015 0.621612 4.78148L2.40692 3L0.621612 1.21852C0.54374 1.14072 0.5 1.03525 0.5 0.925291C0.5 0.815332 0.54374 0.70987 0.621612 0.632066Z" fill="#4B5675"/>
</svg>
