<svg width="16" height="16" viewBox="0 0 16 16" fill="none" xmlns="http://www.w3.org/2000/svg">
<path d="M2.66659 15.6663H10.6666V14.333H2.66659V6.33301H1.33325V14.333C1.33325 15.0683 1.93125 15.6663 2.66659 15.6663Z" fill="#99A1B7"/>
<path d="M13.3333 2.33301H5.33333C4.598 2.33301 4 2.93101 4 3.66634V11.6663C4 12.4017 4.598 12.9997 5.33333 12.9997H13.3333C14.0687 12.9997 14.6667 12.4017 14.6667 11.6663V3.66634C14.6667 2.93101 14.0687 2.33301 13.3333 2.33301ZM12 8.33301H10V10.333H8.66667V8.33301H6.66667V6.99967H8.66667V4.99967H10V6.99967H12V8.33301Z" fill="#C4CADA"/>
</svg>
