<svg width="16" height="16" viewBox="0 0 16 16" fill="none" xmlns="http://www.w3.org/2000/svg">
<g clip-path="url(#clip0_125_21381)">
<path d="M14.666 5.33301V8.55469C14.0234 8.20116 13.2852 8 12.5 8C10.0147 8 8 10.0147 8 12.5C8 13.0262 8.09186 13.5307 8.25781 14H2.66602C1.93083 13.9998 1.33301 13.4012 1.33301 12.666V5.33301H14.666Z" fill="#C1DDE1"/>
<path d="M13.333 3.33333H6.94234L5.80434 2.19533C5.74252 2.13333 5.66905 2.08416 5.58816 2.05064C5.50728 2.01712 5.42057 1.99991 5.33301 2H2.66634C1.93101 2 1.33301 2.598 1.33301 3.33333L1.33301 5.33333H14.6663V4.66667C14.6663 3.93133 14.0683 3.33333 13.333 3.33333Z" fill="white"/>
<circle cx="12.5" cy="12.5" r="3.5" fill="white"/>
<path d="M11 12.5H14" stroke="#C1DDE1" stroke-linecap="round"/>
</g>
<defs>
<clipPath id="clip0_125_21381">
<rect width="16" height="16" fill="white"/>
</clipPath>
</defs>
</svg>
