<svg width="48" height="48" viewBox="0 0 48 48" fill="none" xmlns="http://www.w3.org/2000/svg">
<rect width="48" height="48" rx="24" fill="#FFC44F"/>
<path d="M32.5 17.188V11H15.5V17.188C15.4995 17.8711 15.6343 18.5476 15.8968 19.1788C16.1594 19.8101 16.5444 20.3837 17.03 20.867L20.1946 24L17.03 27.133C16.0565 28.1138 15.5074 29.4341 15.5 30.812V37H32.5V30.812C32.4926 29.4341 31.9435 28.1138 30.97 27.133L27.8054 24L30.97 20.867C31.4556 20.3837 31.8407 19.8101 32.1032 19.1788C32.3657 18.5476 32.5005 17.8711 32.5 17.188ZM29.8846 17.188C29.8817 17.8765 29.6042 18.5356 29.1131 19.021L25.5038 22.622C25.1365 22.9876 24.9302 23.4832 24.9302 24C24.9302 24.5168 25.1365 25.0124 25.5038 25.378L27.3225 27.133H20.6776L22.4962 25.378C22.8635 25.0124 23.0698 24.5168 23.0698 24C23.0698 23.4832 22.8635 22.9876 22.4962 22.622L18.8869 19.021C18.3958 18.5356 18.1183 17.8765 18.1154 17.188V13.6H29.8846V17.188Z" fill="white"/>
</svg>
