<svg width="21" height="20" viewBox="0 0 21 20" fill="none" xmlns="http://www.w3.org/2000/svg">
<path d="M18.278 8.88886L11.1194 1.94246C10.8036 1.59079 10.1969 1.59079 9.88107 1.94246L2.72245 8.88886C2.6145 9.00852 2.54364 9.15697 2.51849 9.31616C2.49334 9.47535 2.51498 9.63841 2.58079 9.78553C2.71412 10.0864 3.01245 10.2797 3.34162 10.2797L3.55579 10.5555V17.5C3.55579 17.721 3.64358 17.9329 3.79987 18.0892C3.95615 18.2455 4.16811 18.3333 4.38912 18.3333H7.44468C7.66569 18.3333 7.87765 18.2455 8.03393 18.0892C8.19021 17.9329 8.27801 17.721 8.27801 17.5V14.1666C8.27801 12.9393 9.27293 11.9444 10.5002 11.9444C11.7275 11.9444 12.7225 12.9393 12.7225 14.1666V17.5C12.7225 17.721 12.8103 17.9329 12.9665 18.0892C13.1228 18.2455 13.3348 18.3333 13.5558 18.3333H16.6113C16.8324 18.3333 17.0443 18.2455 17.2006 18.0892C17.3569 17.9329 17.4447 17.721 17.4447 17.5V10.5555L17.6588 10.2797C17.8202 10.2804 17.9783 10.2341 18.1139 10.1465C18.2494 10.0589 18.3565 9.93371 18.4222 9.78627C18.4878 9.63883 18.5091 9.47548 18.4835 9.31613C18.4579 9.15678 18.3865 9.00833 18.278 8.88886Z" fill="#E1EEFF" fill-opacity="0.5"/>
<path d="M3.27783 9.4445C5.87042 7.06355 10.5001 2.77783 10.5001 2.77783L17.7223 9.4445" stroke="#E1EEFF" stroke-width="2" stroke-linecap="round" stroke-linejoin="round"/>
</svg>
