<svg width="16" height="16" viewBox="0 0 16 16" fill="none" xmlns="http://www.w3.org/2000/svg">
<g clip-path="url(#clip0_125_21348)">
<path d="M13.333 3.33333H6.94234L5.80434 2.19533C5.74252 2.13333 5.66905 2.08416 5.58816 2.05064C5.50728 2.01712 5.42057 1.99991 5.33301 2H2.66634C1.93101 2 1.33301 2.598 1.33301 3.33333L1.33301 5.33333H14.6663V4.66667C14.6663 3.93133 14.0683 3.33333 13.333 3.33333Z" fill="#99A1B7"/>
<path d="M13.9809 12.7816L11.9164 14.847C11.7288 15.0347 11.4933 15.1684 11.2357 15.2328L10.2377 15.4818C9.80346 15.5904 9.40942 15.1972 9.51797 14.763L9.76797 13.765C9.83235 13.5076 9.96511 13.272 10.1527 13.0843L12.2182 11.0189L13.9809 12.7816ZM13.3725 9.86559C13.8592 9.37879 14.6483 9.37879 15.1352 9.86559C15.6218 10.3524 15.6219 11.1415 15.1352 11.6283L14.6176 12.1449L12.8539 10.3822L13.3725 9.86559Z" fill="#99A1B7"/>
<path d="M14.666 5.33301V8.34961C13.991 8.26607 13.2857 8.48184 12.7676 9L9.53613 12.2314C9.19206 12.5755 8.94817 13.0065 8.83008 13.4785L8.72949 14H2.66602C1.93083 13.9998 1.33301 13.4012 1.33301 12.666V5.33301H14.666Z" fill="#C4CADA"/>
</g>
<defs>
<clipPath id="clip0_125_21348">
<rect width="16" height="16" fill="white"/>
</clipPath>
</defs>
</svg>
