<svg width="21" height="20" viewBox="0 0 21 20" fill="none" xmlns="http://www.w3.org/2000/svg">
<path d="M17.1668 6.66663L12.1668 1.66663H5.50016C5.05814 1.66663 4.63421 1.84222 4.32165 2.15478C4.00909 2.46734 3.8335 2.89127 3.8335 3.33329V16.6666C3.8335 17.1087 4.00909 17.5326 4.32165 17.8451C4.63421 18.1577 5.05814 18.3333 5.50016 18.3333H15.5002C15.9422 18.3333 16.3661 18.1577 16.6787 17.8451C16.9912 17.5326 17.1668 17.1087 17.1668 16.6666V6.66663ZM8.00016 15.8333H6.3335V8.33329H8.00016V15.8333ZM11.3335 15.8333H9.66683V10.8333H11.3335V15.8333ZM14.6668 15.8333H13.0002V13.3333H14.6668V15.8333Z" fill="#E1EEFF" fill-opacity="0.5"/>
<path d="M8.00016 15.8334H6.3335V8.33337H8.00016V15.8334ZM11.3335 15.8334H9.66683V10.8334H11.3335V15.8334ZM14.6668 15.8334H13.0002V13.3334H14.6668V15.8334Z" fill="#E1EEFF"/>
<path d="M13.1665 6.66663H12.1665V1.66663L17.1665 6.66663H13.1665Z" fill="#E1EEFF"/>
</svg>
