<svg width="21" height="20" viewBox="0 0 21 20" fill="none" xmlns="http://www.w3.org/2000/svg">
<path d="M8.83333 2.5H3.83333C3.61232 2.5 3.40036 2.5878 3.24408 2.74408C3.0878 2.90036 3 3.11232 3 3.33333V8.33333C3 8.55435 3.0878 8.76631 3.24408 8.92259C3.40036 9.07887 3.61232 9.16667 3.83333 9.16667H8.83333C9.05435 9.16667 9.26631 9.07887 9.42259 8.92259C9.57887 8.76631 9.66667 8.55435 9.66667 8.33333V3.33333C9.66667 3.11232 9.57887 2.90036 9.42259 2.74408C9.26631 2.5878 9.05435 2.5 8.83333 2.5ZM17.1667 10.8333H12.1667C11.9457 10.8333 11.7337 10.9211 11.5774 11.0774C11.4211 11.2337 11.3333 11.4457 11.3333 11.6667V16.6667C11.3333 16.8877 11.4211 17.0996 11.5774 17.2559C11.7337 17.4122 11.9457 17.5 12.1667 17.5H17.1667C17.3877 17.5 17.5996 17.4122 17.7559 17.2559C17.9122 17.0996 18 16.8877 18 16.6667V11.6667C18 11.4457 17.9122 11.2337 17.7559 11.0774C17.5996 10.9211 17.3877 10.8333 17.1667 10.8333ZM14.6667 2.5C12.8283 2.5 11.3333 3.995 11.3333 5.83333C11.3333 7.67167 12.8283 9.16667 14.6667 9.16667C16.505 9.16667 18 7.67167 18 5.83333C18 3.995 16.505 2.5 14.6667 2.5ZM6.33333 10.8333C4.495 10.8333 3 12.3283 3 14.1667C3 16.005 4.495 17.5 6.33333 17.5C8.17167 17.5 9.66667 16.005 9.66667 14.1667C9.66667 12.3283 8.17167 10.8333 6.33333 10.8333Z" fill="#E1EEFF"/>
<path d="M14.6667 2.5C12.8283 2.5 11.3333 3.995 11.3333 5.83333C11.3333 7.67167 12.8283 9.16667 14.6667 9.16667C16.505 9.16667 18 7.67167 18 5.83333C18 3.995 16.505 2.5 14.6667 2.5ZM6.33333 10.8333C4.495 10.8333 3 12.3283 3 14.1667C3 16.005 4.495 17.5 6.33333 17.5C8.17167 17.5 9.66667 16.005 9.66667 14.1667C9.66667 12.3283 8.17167 10.8333 6.33333 10.8333Z" fill="white"/>
</svg>
