<svg width="21" height="20" viewBox="0 0 21 20" fill="none" xmlns="http://www.w3.org/2000/svg">
<path d="M18.4033 5.93754L10.885 1.77087C10.7614 1.70281 10.6227 1.66711 10.4816 1.66711C10.3406 1.66711 10.2018 1.70281 10.0783 1.77087L2.59664 5.9042C2.46667 5.97617 2.3583 6.08158 2.28276 6.20951C2.20722 6.33744 2.16725 6.48323 2.16699 6.6318C2.16674 6.78037 2.20621 6.9263 2.28131 7.05449C2.35641 7.18268 2.46442 7.28845 2.59414 7.36087L10.1125 11.5609C10.2362 11.6304 10.3758 11.667 10.5178 11.6672C10.6598 11.6673 10.7994 11.631 10.9233 11.5617L18.405 7.39504C18.5349 7.32276 18.6432 7.21702 18.7185 7.08879C18.7938 6.96056 18.8335 6.81451 18.8333 6.66579C18.8331 6.51708 18.7932 6.37112 18.7175 6.24307C18.6419 6.11501 18.5334 6.00952 18.4033 5.93754Z" fill="#E1EEFF"/>
<path d="M10.5002 13.2134L3.40438 9.27173L2.59521 10.7284L10.0952 14.8951C10.219 14.9638 10.3582 14.9999 10.4998 14.9999C10.6414 14.9999 10.7806 14.9638 10.9044 14.8951L18.4044 10.7284L17.5952 9.27173L10.5002 13.2134Z" fill="#E1EEFF" fill-opacity="0.5"/>
<path d="M10.5002 16.5466L3.40438 12.605L2.59521 14.0616L10.0952 18.2283C10.219 18.297 10.3582 18.3331 10.4998 18.3331C10.6414 18.3331 10.7806 18.297 10.9044 18.2283L18.4044 14.0616L17.5952 12.605L10.5002 16.5466Z" fill="#E1EEFF" fill-opacity="0.5"/>
</svg>
