<svg width="21" height="20" viewBox="0 0 21 20" fill="none" xmlns="http://www.w3.org/2000/svg">
<path d="M2.45333 12.7258L4.12 15.6091C4.23065 15.8004 4.41272 15.9399 4.62619 15.9969C4.83965 16.0539 5.06703 16.0239 5.25833 15.9133L6.42166 15.2416C6.905 15.6225 7.43916 15.935 8.00083 16.1683V17.5C8.00083 17.721 8.08863 17.9329 8.24491 18.0892C8.40119 18.2455 8.61315 18.3333 8.83416 18.3333H12.1675C12.3885 18.3333 12.6005 18.2455 12.7568 18.0892C12.913 17.9329 13.0008 17.721 13.0008 17.5V16.1683C13.5669 15.9326 14.0982 15.6209 14.58 15.2416L15.7433 15.9133C16.1408 16.1425 16.6525 16.005 16.8817 15.6091L18.5483 12.7258C18.658 12.5343 18.6876 12.3072 18.6306 12.094C18.5736 11.8808 18.4347 11.6987 18.2442 11.5875L17.1008 10.9266C17.1902 10.312 17.1896 9.68772 17.0992 9.07329L18.2425 8.41246C18.6392 8.18329 18.7767 7.67079 18.5467 7.27413L16.88 4.39079C16.7693 4.19954 16.5873 4.06006 16.3738 4.00302C16.1603 3.94598 15.933 3.97605 15.7417 4.08663L14.5783 4.75829C14.0971 4.37861 13.566 4.06681 13 3.83163V2.49996C13 2.27895 12.9122 2.06698 12.7559 1.9107C12.5996 1.75442 12.3877 1.66663 12.1667 1.66663H8.83333C8.61232 1.66663 8.40035 1.75442 8.24407 1.9107C8.08779 2.06698 8 2.27895 8 2.49996V3.83163C7.43393 4.0673 6.90265 4.37906 6.42083 4.75829L5.25833 4.08663C5.16364 4.03177 5.05905 3.99611 4.95057 3.98171C4.84208 3.96731 4.73182 3.97444 4.6261 4.00269C4.52037 4.03094 4.42125 4.07976 4.33441 4.14635C4.24756 4.21295 4.1747 4.29601 4.12 4.39079L2.45333 7.27413C2.34365 7.46563 2.31408 7.69271 2.37105 7.90592C2.42802 8.11912 2.56692 8.30119 2.7575 8.41246L3.90083 9.07329C3.81094 9.6878 3.81094 10.3121 3.90083 10.9266L2.7575 11.5875C2.36083 11.8166 2.22333 12.3291 2.45333 12.7258ZM10.5 6.66663C12.3383 6.66663 13.8333 8.16163 13.8333 9.99996C13.8333 11.8383 12.3383 13.3333 10.5 13.3333C8.66166 13.3333 7.16666 11.8383 7.16666 9.99996C7.16666 8.16163 8.66166 6.66663 10.5 6.66663Z" fill="#E1EEFF" fill-opacity="0.5"/>
<circle cx="10.4998" cy="9.99996" r="3.33333" fill="#E1EEFF"/>
</svg>
