<svg width="21" height="20" viewBox="0 0 21 20" fill="none" xmlns="http://www.w3.org/2000/svg">
<path d="M17.1665 2.5H3.83317C2.914 2.5 2.1665 3.2475 2.1665 4.16667V13.6111C2.1665 14.5303 2.914 15.2778 3.83317 15.2778H9.6665V16.6667H7.1665V18.3333H13.8332V16.6667H11.3332V15.2778H17.1665C18.0857 15.2778 18.8332 14.5303 18.8332 13.6111V4.16667C18.8332 3.2475 18.0857 2.5 17.1665 2.5ZM8.83317 11.6667V6.66667L12.9998 9.16667L8.83317 11.6667Z" fill="#E1EEFF" fill-opacity="0.5"/>
<path d="M9.6665 16.6667V15.2778H11.3332V16.6667H13.8332V18.3334H7.1665V16.6667H9.6665Z" fill="#E1EEFF"/>
<path d="M8.8335 11.6666V6.66663L13.0002 9.16663L8.8335 11.6666Z" fill="#E1EEFF"/>
</svg>
