<svg width="21" height="20" viewBox="0 0 21 20" fill="none" xmlns="http://www.w3.org/2000/svg">
<path d="M18 16.6666V4.99996C18 4.08079 17.2525 3.33329 16.3333 3.33329H14.6667V1.66663H13V3.33329H8V1.66663H6.33333V3.33329H4.66667C3.7475 3.33329 3 4.08079 3 4.99996V16.6666C3 17.5858 3.7475 18.3333 4.66667 18.3333H16.3333C17.2525 18.3333 18 17.5858 18 16.6666ZM8 15H6.33333V13.3333H8V15ZM8 11.6666H6.33333V9.99996H8V11.6666ZM11.3333 15H9.66667V13.3333H11.3333V15ZM11.3333 11.6666H9.66667V9.99996H11.3333V11.6666ZM14.6667 15H13V13.3333H14.6667V15ZM14.6667 11.6666H13V9.99996H14.6667V11.6666ZM16.3333 7.49996H4.66667V5.83329H16.3333V7.49996Z" fill="#E1EEFF" fill-opacity="0.5"/>
<path d="M8.00016 15H6.3335V13.3333H8.00016V15ZM8.00016 11.6667H6.3335V10H8.00016V11.6667ZM11.3335 15H9.66683V13.3333H11.3335V15ZM11.3335 11.6667H9.66683V10H11.3335V11.6667ZM14.6668 15H13.0002V13.3333H14.6668V15ZM14.6668 11.6667H13.0002V10H14.6668V11.6667Z" fill="#E1EEFF"/>
<path d="M3 4.83337C3 4.00495 3.67157 3.33337 4.5 3.33337H16.5C17.3284 3.33337 18 4.00495 18 4.83337V7.77782H3V4.83337Z" fill="#E1EEFF"/>
</svg>
