<svg width="36" height="36" viewBox="0 0 36 36" fill="none" xmlns="http://www.w3.org/2000/svg">
<path d="M18 0C8.0748 0 0 8.0748 0 18C0 27.9252 8.0748 36 18 36C27.9252 36 36 27.9252 36 18C36 8.0748 27.9252 0 18 0ZM19.8 28.8H16.2V25.2H19.8V28.8ZM21.5568 20.007C21.204 20.2914 20.8638 20.5632 20.5938 20.8332C19.8594 21.5658 19.8018 22.2318 19.8 22.2606V22.5H16.2V22.1994C16.2 21.987 16.2522 20.0808 18.0468 18.2862C18.3978 17.9352 18.8334 17.5788 19.2906 17.208C20.6118 16.137 21.4794 15.3558 21.4794 14.2794C21.4585 13.3701 21.0825 12.505 20.4319 11.8694C19.7813 11.2338 18.9078 10.878 17.9982 10.8782C17.0887 10.8785 16.2153 11.2347 15.565 11.8707C14.9148 12.5066 14.5392 13.3719 14.5188 14.2812H10.9188C10.9188 10.377 14.0958 7.2 18 7.2C21.9042 7.2 25.0812 10.377 25.0812 14.2812C25.0812 17.1558 22.959 18.8712 21.5568 20.007Z" fill="#DBDFE9"/>
</svg>
