<svg width="16" height="16" viewBox="0 0 16 16" fill="none" xmlns="http://www.w3.org/2000/svg">
<path d="M13.3337 5.33301L9.33366 1.33301H4.00033C3.6467 1.33301 3.30756 1.47348 3.05752 1.72353C2.80747 1.97358 2.66699 2.31272 2.66699 2.66634V13.333C2.66699 13.6866 2.80747 14.0258 3.05752 14.2758C3.30756 14.5259 3.6467 14.6663 4.00033 14.6663H12.0003C12.3539 14.6663 12.6931 14.5259 12.9431 14.2758C13.1932 14.0258 13.3337 13.6866 13.3337 13.333V5.33301Z" fill="#C1DDE1"/>
<path d="M5 8.66732L5 7.33398L11 7.33398L11 8.66732L5 8.66732ZM5 11.334L5 10.0007L9 10.0007L9 11.334L5 11.334Z" fill="white"/>
<path d="M10.133 5.33301H9.33301V1.33301L13.333 5.33301H10.133Z" fill="white"/>
</svg>
