<svg width="76" height="76" viewBox="0 0 76 76" fill="none" xmlns="http://www.w3.org/2000/svg">
<g clip-path="url(#clip0_229_22997)">
<path d="M59.2266 57.0297C55.9461 51.3297 49.7859 47.5 42.75 47.5H33.25C26.2141 47.5 20.0539 51.3297 16.7734 57.0297C21.9984 62.8484 29.5688 66.5 38 66.5C46.4313 66.5 54.0016 62.8336 59.2266 57.0297ZM0 38C0 27.9218 4.00356 18.2563 11.1299 11.1299C18.2563 4.00356 27.9218 0 38 0C48.0782 0 57.7437 4.00356 64.8701 11.1299C71.9964 18.2563 76 27.9218 76 38C76 48.0782 71.9964 57.7437 64.8701 64.8701C57.7437 71.9964 48.0782 76 38 76C27.9218 76 18.2563 71.9964 11.1299 64.8701C4.00356 57.7437 0 48.0782 0 38ZM38 40.375C40.8345 40.375 43.5529 39.249 45.5572 37.2447C47.5615 35.2404 48.6875 32.522 48.6875 29.6875C48.6875 26.853 47.5615 24.1346 45.5572 22.1303C43.5529 20.126 40.8345 19 38 19C35.1655 19 32.4471 20.126 30.4428 22.1303C28.4385 24.1346 27.3125 26.853 27.3125 29.6875C27.3125 32.522 28.4385 35.2404 30.4428 37.2447C32.4471 39.249 35.1655 40.375 38 40.375Z" fill="#DBDFE9"/>
</g>
<defs>
<clipPath id="clip0_229_22997">
<rect width="76" height="76" fill="white"/>
</clipPath>
</defs>
</svg>
