<svg width="16" height="16" viewBox="0 0 16 16" fill="none" xmlns="http://www.w3.org/2000/svg">
<g clip-path="url(#clip0_86_14062)">
<path d="M1.98104 13.8018L4.22237 14.25C4.32464 14.2711 4.43053 14.2666 4.53063 14.2368C4.63073 14.2071 4.72193 14.1531 4.79615 14.0797L10.2919 8.58396C11.2218 8.75045 12.1806 8.61581 13.0288 8.19963C13.8769 7.78345 14.5701 7.10745 15.0074 6.27003C15.4447 5.43261 15.6034 4.47747 15.4603 3.54363C15.3172 2.60979 14.8798 1.746 14.2118 1.07797C13.5437 0.409935 12.6799 -0.0274648 11.7461 -0.17057C10.8123 -0.313675 9.85712 -0.155017 9.01969 0.282312C8.18227 0.719641 7.50628 1.41282 7.09009 2.26094C6.67391 3.10907 6.53927 4.06789 6.70576 4.99785L5.69268 6.01092C5.63334 6.06958 5.58617 6.13937 5.55386 6.21629C5.52155 6.29321 5.50475 6.37576 5.50441 6.45919L5.50889 7.6202L4.34788 7.61571C4.2642 7.61537 4.18127 7.6316 4.10389 7.66347C4.0265 7.69533 3.9562 7.74221 3.89702 7.80139C3.83784 7.86056 3.79097 7.93087 3.7591 8.00825C3.72723 8.08564 3.711 8.16856 3.71135 8.25225L3.71583 9.41325L2.55482 9.40877C2.47139 9.40911 2.38885 9.42592 2.31192 9.45823C2.235 9.49053 2.16521 9.53771 2.10656 9.59704L1.21003 10.4936C1.13658 10.5678 1.0826 10.659 1.05288 10.7591C1.02317 10.8592 1.01863 10.9651 1.03969 11.0674L1.48795 13.3087C1.51295 13.4301 1.57297 13.5415 1.66061 13.6291C1.74825 13.7167 1.85965 13.7768 1.98104 13.8018Z" fill="#C4CADA"/>
<path d="M9.72733 2.87298C9.99331 2.607 10.3322 2.42587 10.7011 2.35249C11.07 2.27911 11.4524 2.31677 11.7999 2.46071C12.1474 2.60466 12.4445 2.84842 12.6534 3.16118C12.8624 3.47393 12.974 3.84163 12.974 4.21777C12.974 4.59392 12.8624 4.96162 12.6534 5.27437C12.4445 5.58713 12.1474 5.83089 11.7999 5.97483C11.4524 6.11878 11.07 6.15644 10.7011 6.08306C10.3322 6.00967 9.99331 5.82854 9.72733 5.56257C9.37067 5.20591 9.1703 4.72217 9.1703 4.21777C9.1703 3.71338 9.37067 3.22964 9.72733 2.87298Z" fill="#99A1B7"/>
</g>
<defs>
<clipPath id="clip0_86_14062">
<rect width="16" height="16" fill="white"/>
</clipPath>
</defs>
</svg>
