<svg width="22" height="22" viewBox="0 0 22 22" fill="none" xmlns="http://www.w3.org/2000/svg">
<path d="M11 20C15.9706 20 20 15.9706 20 11C20 6.02944 15.9706 2 11 2C6.02944 2 2 6.02944 2 11C2 15.9706 6.02944 20 11 20Z" stroke="#071437" stroke-width="1.5" stroke-linecap="round" stroke-linejoin="round"/>
<path d="M11 16.75C11.6213 16.75 12.125 16.2463 12.125 15.625C12.125 15.0037 11.6213 14.5 11 14.5C10.3787 14.5 9.875 15.0037 9.875 15.625C9.875 16.2463 10.3787 16.75 11 16.75Z" fill="#071437"/>
<path d="M11 12.5V11.75C11.5192 11.75 12.0267 11.596 12.4584 11.3076C12.8901 11.0192 13.2265 10.6092 13.4252 10.1295C13.6239 9.64989 13.6758 9.12209 13.5746 8.61289C13.4733 8.10369 13.2233 7.63596 12.8562 7.26885C12.489 6.90173 12.0213 6.65173 11.5121 6.55044C11.0029 6.44915 10.4751 6.50114 9.99546 6.69982C9.5158 6.8985 9.10583 7.23495 8.81739 7.66663C8.52895 8.09831 8.375 8.60583 8.375 9.125" stroke="#071437" stroke-width="1.5" stroke-linecap="round" stroke-linejoin="round"/>
</svg>
