<svg width="16" height="16" viewBox="0 0 16 16" fill="none" xmlns="http://www.w3.org/2000/svg">
<path d="M12.2735 7.62251L4.27797 2.73318C4.21066 2.69166 4.13349 2.66885 4.05443 2.6671C3.97537 2.66535 3.89727 2.68473 3.82819 2.72323C3.75911 2.76173 3.70156 2.81796 3.66146 2.88612C3.62137 2.95428 3.60018 3.03191 3.6001 3.11099V12.8897C3.60018 12.9687 3.62137 13.0464 3.66146 13.1145C3.70156 13.1827 3.75911 13.2389 3.82819 13.2774C3.89727 13.3159 3.97537 13.3353 4.05443 13.3335C4.13349 13.3318 4.21066 13.309 4.27797 13.2675L12.2735 8.37814C12.3391 8.33931 12.3935 8.28405 12.4313 8.2178C12.4691 8.15155 12.489 8.0766 12.489 8.00033C12.489 7.92405 12.4691 7.8491 12.4313 7.78285C12.3935 7.7166 12.3391 7.66134 12.2735 7.62251Z" fill="#99A1B7"/>
</svg>
