<svg width="16" height="16" viewBox="0 0 16 16" fill="none" xmlns="http://www.w3.org/2000/svg">
<path d="M13.5834 7.62251L6.38742 2.73318C6.32685 2.69166 6.2574 2.66885 6.18624 2.6671C6.11509 2.66535 6.0448 2.68473 5.98263 2.72323C5.92046 2.76173 5.86866 2.81796 5.83257 2.88612C5.79649 2.95428 5.77742 3.03191 5.77734 3.11099V12.8897C5.77742 12.9687 5.79649 13.0464 5.83257 13.1145C5.86866 13.1827 5.92046 13.2389 5.98263 13.2774C6.0448 13.3159 6.11509 13.3353 6.18624 13.3335C6.2574 13.3318 6.32685 13.309 6.38742 13.2675L13.5834 8.37814C13.6425 8.33931 13.6914 8.28405 13.7254 8.2178C13.7595 8.15155 13.7773 8.0766 13.7773 8.00033C13.7773 7.92405 13.7595 7.8491 13.7254 7.78285C13.6914 7.7166 13.6425 7.66134 13.5834 7.62251Z" stroke="#78829D" stroke-width="1.5" stroke-linecap="round" stroke-linejoin="round"/>
<path d="M2.66699 2.66699L2.66699 13.3337" stroke="#78829D" stroke-width="1.5" stroke-linecap="round"/>
</svg>
