<svg width="16" height="16" viewBox="0 0 16 16" fill="none" xmlns="http://www.w3.org/2000/svg">
<path d="M13.8367 5.33301L9.83671 1.33301H3.50338C3.14976 1.33301 2.81062 1.47348 2.56057 1.72353C2.31052 1.97358 2.17004 2.31272 2.17004 2.66634V13.333C2.17004 13.6866 2.31052 14.0258 2.56057 14.2758C2.81062 14.5259 3.14976 14.6663 3.50338 14.6663H12.5034C12.857 14.6663 13.1961 14.5259 13.4462 14.2758C13.6962 14.0258 13.8367 13.6866 13.8367 13.333V5.33301Z" fill="#C1DDE1"/>
<path d="M5 8.66732L5 7.33398L11 7.33398L11 8.66732L5 8.66732ZM5 11.334L5 10.0007L9 10.0007L9 11.334L5 11.334Z" fill="white"/>
<path d="M10.63 5.33301H9.82996V1.33301L13.83 5.33301H10.63Z" fill="white"/>
</svg>
