<svg width="18" height="18" viewBox="0 0 18 18" fill="none" xmlns="http://www.w3.org/2000/svg">
<rect x="0.5" y="0.5" width="17" height="17" rx="8.5" stroke="#639BD2"/>
<path fill-rule="evenodd" clip-rule="evenodd" d="M6.83152 13.3926C6.95495 13.4635 7.09493 13.5004 7.23725 13.4997C7.5027 13.4997 7.77193 13.3776 7.95443 13.1521L8.34734 12.6694C8.36445 12.6484 8.38672 12.6322 8.41198 12.6225C8.43723 12.6127 8.4646 12.6096 8.49138 12.6136C8.82959 12.6611 9.17278 12.6611 9.51098 12.6136C9.53771 12.6099 9.56495 12.6132 9.59005 12.6231C9.61515 12.633 9.63727 12.6492 9.65427 12.6702L10.0464 13.1521C10.3262 13.4967 10.8096 13.6008 11.1693 13.3926L11.7206 13.0744C12.0803 12.867 12.2319 12.3972 12.0736 11.9816L11.8518 11.401C11.8423 11.3757 11.8394 11.3484 11.8435 11.3217C11.8476 11.295 11.8585 11.2698 11.8752 11.2486C12.0853 10.9798 12.2567 10.6828 12.3843 10.3663C12.3943 10.341 12.4107 10.3188 12.4318 10.3018C12.453 10.2847 12.4781 10.2734 12.5049 10.269L13.1188 10.1702C13.5585 10.1001 13.8895 9.73355 13.8895 9.31801V8.68152C13.8895 8.26599 13.5585 7.89947 13.1188 7.82934L12.5057 7.7313C12.4789 7.72692 12.4536 7.71566 12.4325 7.6986C12.4113 7.68155 12.395 7.65929 12.385 7.63402C12.3206 7.47639 12.2458 7.32321 12.161 7.1755C12.0757 7.02778 11.9802 6.88617 11.8752 6.75167C11.8585 6.73032 11.8475 6.70501 11.8434 6.67819C11.8393 6.65137 11.8422 6.62395 11.8518 6.59858L12.0736 6.01789C12.2319 5.60236 12.0803 5.13253 11.7206 4.92514L11.1693 4.60689C10.8096 4.39875 10.3262 4.50282 10.0464 4.84746L9.65352 5.33011C9.63646 5.35117 9.61419 5.3674 9.58892 5.37719C9.56365 5.38698 9.53627 5.38999 9.50947 5.38592C9.1713 5.33803 8.82805 5.33803 8.48988 5.38592C8.46314 5.38961 8.43591 5.38635 8.41081 5.37644C8.38571 5.36653 8.36359 5.35031 8.34659 5.32936L7.95443 4.84746C7.67465 4.50282 7.19124 4.39875 6.83152 4.60689L6.28024 4.92514C5.92051 5.13253 5.76893 5.60236 5.9273 6.01789L6.14902 6.59858C6.15856 6.62384 6.16142 6.65113 6.15733 6.67782C6.15323 6.7045 6.14232 6.72968 6.12564 6.75092C5.91551 7.01976 5.74416 7.31678 5.61659 7.63326C5.60657 7.6585 5.59019 7.68072 5.56905 7.69776C5.54791 7.7148 5.52272 7.7261 5.49593 7.73055L4.88206 7.82934C4.4424 7.89947 4.11133 8.26599 4.11133 8.68152V9.31801C4.11133 9.73355 4.4424 10.1001 4.88206 10.1702L5.49518 10.2682C5.52199 10.2726 5.54721 10.2839 5.56836 10.3009C5.58952 10.318 5.60588 10.3402 5.61584 10.3655C5.68027 10.5231 5.75509 10.6763 5.83982 10.824C5.92518 10.9718 6.02068 11.1134 6.12564 11.2479C6.14238 11.2692 6.15333 11.2945 6.15743 11.3213C6.16152 11.3482 6.15863 11.3756 6.14902 11.401L5.9273 11.9816C5.76893 12.3972 5.92051 12.867 6.28024 13.0744L6.83152 13.3926ZM9.00042 10.4722C9.81359 10.4722 10.4728 9.81299 10.4728 8.99982C10.4728 8.18666 9.81359 7.52745 9.00042 7.52745C8.18725 7.52745 7.52805 8.18666 7.52805 8.99982C7.52805 9.81299 8.18725 10.4722 9.00042 10.4722Z" fill="white"/>
</svg>
