<svg width="16" height="16" viewBox="0 0 16 16" fill="none" xmlns="http://www.w3.org/2000/svg">
<g clip-path="url(#clip0_125_21387)">
<path d="M14.666 5.33301V8.55469C14.0234 8.20116 13.2852 8 12.5 8C10.0147 8 8 10.0147 8 12.5C8 13.0262 8.09186 13.5307 8.25781 14H2.66602C1.93083 13.9998 1.33301 13.4012 1.33301 12.666V5.33301H14.666Z" fill="#C1DDE1"/>
<path d="M13.333 3.33333H6.94234L5.80434 2.19533C5.74252 2.13333 5.66905 2.08416 5.58816 2.05064C5.50728 2.01712 5.42057 1.99991 5.33301 2H2.66634C1.93101 2 1.33301 2.598 1.33301 3.33333L1.33301 5.33333H14.6663V4.66667C14.6663 3.93133 14.0683 3.33333 13.333 3.33333Z" fill="white"/>
<path d="M12.504 8.75C12.7784 8.75325 13.0517 8.78587 13.3195 8.84732C13.4365 8.87415 13.5239 8.97443 13.5372 9.09691L13.6008 9.68416C13.6296 9.9538 13.8509 10.158 14.1147 10.1583C14.1856 10.1584 14.2558 10.1432 14.3213 10.1134L14.8449 9.87676C14.9539 9.82754 15.0811 9.85437 15.1624 9.9437C15.5408 10.3595 15.8226 10.8581 15.9866 11.4022C16.022 11.5195 15.9813 11.6469 15.8852 11.7198L15.4211 12.0718C15.2887 12.1719 15.2105 12.3308 15.2105 12.4998C15.2105 12.6688 15.2887 12.8277 15.4214 12.928L15.8859 13.2801C15.982 13.353 16.0228 13.4805 15.9874 13.5978C15.8234 14.1417 15.5418 14.6404 15.1636 15.0562C15.0823 15.1455 14.9552 15.1724 14.8463 15.1233L14.3205 14.8864C14.1701 14.8186 13.9974 14.8286 13.8552 14.9131C13.7131 14.9976 13.6185 15.1466 13.6004 15.3145L13.5372 15.9017C13.5242 16.0228 13.4386 16.1224 13.3234 16.1506C12.7819 16.2831 12.2177 16.2831 11.6762 16.1506C11.561 16.1224 11.4755 16.0228 11.4624 15.9017L11.3993 15.3154C11.3808 15.1478 11.286 14.9992 11.144 14.915C11.0019 14.8308 10.8295 14.8209 10.6796 14.8882L10.1537 15.1252C10.0448 15.1744 9.91759 15.1474 9.83637 15.0581C9.45797 14.6417 9.17629 14.1425 9.01254 13.598C8.97728 13.4807 9.01803 13.3533 9.1141 13.2805L9.57893 12.9282C9.71132 12.8281 9.78952 12.6692 9.78952 12.5002C9.78952 12.3312 9.71132 12.1722 9.57876 12.072L9.11422 11.7203C9.018 11.6475 8.97721 11.5199 9.01261 11.4025C9.17664 10.8585 9.45846 10.3599 9.83687 9.94409C9.91817 9.85476 10.0454 9.82792 10.1543 9.87714L10.6779 10.1137C10.8285 10.1818 11.0017 10.1715 11.1445 10.0857C11.2867 10.0008 11.3813 9.85163 11.3996 9.68371L11.4632 9.09691C11.4765 8.97437 11.564 8.87405 11.681 8.84728C11.9491 8.78593 12.2228 8.75333 12.504 8.75ZM12.4993 11.3461C11.8799 11.3461 11.3777 11.8627 11.3777 12.5C11.3777 13.1372 11.8799 13.6539 12.4993 13.6539C13.1187 13.6539 13.6209 13.1372 13.6209 12.5C13.6209 11.8627 13.1187 11.3461 12.4993 11.3461Z" fill="white"/>
</g>
<defs>
<clipPath id="clip0_125_21387">
<rect width="16" height="16" fill="white"/>
</clipPath>
</defs>
</svg>
