<svg width="16" height="16" viewBox="0 0 16 16" fill="none" xmlns="http://www.w3.org/2000/svg">
<path d="M7.99964 14.5002C8.52409 14.501 9.0357 14.3221 9.46338 13.9884C9.89106 13.6548 10.2135 13.183 10.386 12.6387H5.61328C5.78575 13.183 6.10823 13.6548 6.53591 13.9884C6.96359 14.3221 7.4752 14.501 7.99964 14.5002Z" fill="#C4CADA"/>
<path d="M12.4543 9.30986V6.46415C12.4543 4.46794 11.0638 2.78634 9.18019 2.28061C8.99373 1.82267 8.5381 1.5 7.99973 1.5C7.46137 1.5 7.00573 1.82267 6.81928 2.28061C4.93501 2.78634 3.54519 4.46794 3.54519 6.46415V9.30986L2.45892 10.3691C2.39971 10.4266 2.35275 10.495 2.32075 10.5703C2.28875 10.6456 2.27234 10.7263 2.27246 10.8078V11.4283C2.27246 11.5929 2.33951 11.7507 2.45885 11.8671C2.57819 11.9835 2.74005 12.0488 2.90883 12.0488H13.0906C13.2594 12.0488 13.4213 11.9835 13.5406 11.8671C13.66 11.7507 13.727 11.5929 13.727 11.4283V10.8078C13.7271 10.7263 13.7107 10.6456 13.6787 10.5703C13.6467 10.495 13.5998 10.4266 13.5406 10.3691L12.4543 9.30986Z" fill="#99A1B7"/>
<path d="M3.99409 2.5618L3.09682 1.68066C1 3.71162 1 5.1835 1 7.08539H1.63636L2.27273 7.04629C2.27273 5.22941 2.27273 4.22852 3.99409 2.5618ZM12.9025 1.68066L12.0065 2.5618C13.7273 4.22852 13.7273 5.22941 13.7273 7.08539L15 7.04629C15 5.1835 15 3.71162 12.9025 1.68066Z" fill="#C4CADA"/>
</svg>
