<svg width="16" height="16" viewBox="0 0 16 16" fill="none" xmlns="http://www.w3.org/2000/svg">
<g clip-path="url(#clip0_125_21412)">
<path d="M6 1.33301V2.66602H10V1.33301H11.333V2.66602H12.667C13.4022 2.66619 14 3.26478 14 4V8.93262C13.4776 8.65645 12.8821 8.5 12.25 8.5C11.9336 8.5 11.6265 8.53951 11.333 8.61328V8H10V9.24902C9.37549 9.718 8.90295 10.378 8.66699 11.1416V10.666H7.33301V12H8.50879C8.50335 12.0826 8.5 12.166 8.5 12.25C8.5 13.1707 8.8323 14.0134 9.38281 14.666H3.33301C2.59782 14.6658 2 14.0682 2 13.333V4C2 3.26478 2.59782 2.66619 3.33301 2.66602H4.66699V1.33301H6ZM4.66699 10.666V12H6V10.666H4.66699ZM4.66699 8V9.33301H6V8H4.66699ZM7.33301 8V9.33301H8.66699V8H7.33301ZM3.33301 4.66602V6H12.667V4.66602H3.33301Z" fill="#C4CADA"/>
<path d="M6 12H4.66699V10.667H6V12ZM8.66699 11.1416C8.58231 11.4157 8.52834 11.7031 8.50879 12H7.33398V10.667H8.66699V11.1416ZM6 9.33301H4.66699V8H6V9.33301ZM8.66699 9.33301H7.33398V8H8.66699V9.33301ZM11.334 8.6123C10.844 8.73529 10.3921 8.95458 10 9.24902V8H11.334V8.6123Z" fill="white"/>
<path d="M2 4.16699C2 3.33856 2.67157 2.66699 3.5 2.66699H12.5C13.3284 2.66699 14 3.33856 14 4.16699V6.22255H2V4.16699Z" fill="#99A1B7"/>
<path d="M12.25 9.5C13.7688 9.5 15 10.7312 15 12.25C15 12.7916 14.8407 13.295 14.5703 13.7207L15.3232 14.4736C15.5579 14.7083 15.5587 15.0895 15.3242 15.3242C15.0897 15.5588 14.7093 15.5586 14.4746 15.3242L13.7207 14.5703C13.295 14.8407 12.7916 15 12.25 15C10.7312 15 9.5 13.7688 9.5 12.25C9.5 10.7312 10.7312 9.5 12.25 9.5ZM12.252 10.75C11.4225 10.75 10.7501 11.4224 10.75 12.252C10.75 13.0298 11.3412 13.6693 12.0986 13.7461L12.252 13.7539C13.0298 13.7539 13.6694 13.163 13.7461 12.4053L13.7539 12.252C13.7538 11.4224 13.0814 10.75 12.252 10.75Z" fill="#99A1B7"/>
</g>
<defs>
<clipPath id="clip0_125_21412">
<rect width="16" height="16" fill="white"/>
</clipPath>
</defs>
</svg>
