<svg width="16" height="16" viewBox="0 0 16 16" fill="none" xmlns="http://www.w3.org/2000/svg">
<path d="M4.5 6.25H2C1.72386 6.25 1.5 6.47386 1.5 6.75V9.25C1.5 9.52614 1.72386 9.75 2 9.75H4.5C4.77614 9.75 5 9.52614 5 9.25V6.75C5 6.47386 4.77614 6.25 4.5 6.25Z" stroke="#78829D" stroke-width="1.5" stroke-linecap="round" stroke-linejoin="round"/>
<path d="M13.5 2.5H10.5C10.2239 2.5 10 2.72386 10 3V6C10 6.27614 10.2239 6.5 10.5 6.5H13.5C13.7761 6.5 14 6.27614 14 6V3C14 2.72386 13.7761 2.5 13.5 2.5Z" stroke="#78829D" stroke-width="1.5" stroke-linecap="round" stroke-linejoin="round"/>
<path d="M13.5 9.5H10.5C10.2239 9.5 10 9.72386 10 10V13C10 13.2761 10.2239 13.5 10.5 13.5H13.5C13.7761 13.5 14 13.2761 14 13V10C14 9.72386 13.7761 9.5 13.5 9.5Z" stroke="#78829D" stroke-width="1.5" stroke-linecap="round" stroke-linejoin="round"/>
<path d="M5 8H7.5" stroke="#78829D" stroke-width="1.5" stroke-linecap="round" stroke-linejoin="round"/>
<path d="M10 11.5H9.00001C8.8028 11.5008 8.60737 11.4626 8.42501 11.3875C8.24265 11.3124 8.07696 11.202 7.93751 11.0625C7.79806 10.9231 7.6876 10.7574 7.61251 10.575C7.53742 10.3927 7.49919 10.1972 7.50001 10V6.00001C7.49919 5.8028 7.53742 5.60737 7.61251 5.42501C7.6876 5.24265 7.79806 5.07696 7.93751 4.93751C8.07696 4.79806 8.24265 4.6876 8.42501 4.61251C8.60737 4.53742 8.8028 4.49919 9.00001 4.50001H10" stroke="#78829D" stroke-width="1.5" stroke-linecap="round" stroke-linejoin="round"/>
</svg>
