<svg width="16" height="16" viewBox="0 0 16 16" fill="none" xmlns="http://www.w3.org/2000/svg">
<path d="M2.66699 5.77734V13.2204C2.66699 14.0176 3.38486 14.6662 4.26699 14.6662H11.7337C12.6158 14.6662 13.3337 14.0176 13.3337 13.2204V5.77734H2.66699Z" fill="#C4CADA"/>
<path d="M5.92595 12.4041C5.92595 12.6718 5.69366 12.889 5.40743 12.889C5.12121 12.889 4.88892 12.6718 4.88892 12.4041V8.04051C4.88892 7.77288 5.12121 7.55566 5.40743 7.55566C5.69366 7.55566 5.92595 7.77288 5.92595 8.04051V12.4041ZM8.51855 12.4041C8.51855 12.6718 8.28625 12.889 8.00003 12.889C7.7138 12.889 7.48151 12.6718 7.48151 12.4041V8.04051C7.48151 7.77288 7.7138 7.55566 8.00003 7.55566C8.28625 7.55566 8.51855 7.77288 8.51855 8.04051V12.4041ZM11.1111 12.4041C11.1111 12.6718 10.8788 12.889 10.5926 12.889C10.3064 12.889 10.0741 12.6718 10.0741 12.4041V8.04051C10.0741 7.77288 10.3064 7.55566 10.5926 7.55566C10.8788 7.55566 11.1111 7.77288 11.1111 8.04051V12.4041Z" fill="white"/>
<path d="M13.2645 3.19347H10.3927V2.72836C10.3927 1.95905 9.74849 1.33301 8.95683 1.33301H7.0423C6.25064 1.33301 5.6064 1.95905 5.6064 2.72836V3.19347H2.73461C2.20668 3.19347 1.77734 3.61068 1.77734 4.12371V5.31234C1.77734 5.56908 1.99177 5.77745 2.25598 5.77745H13.7432C14.0074 5.77745 14.2218 5.56908 14.2218 5.31234V4.12371C14.2218 3.61068 13.7925 3.19347 13.2645 3.19347ZM6.56367 2.72836C6.56367 2.47208 6.77857 2.26324 7.0423 2.26324H8.95683C9.22056 2.26324 9.43546 2.47208 9.43546 2.72836V3.19347H6.56367V2.72836Z" fill="#99A1B7"/>
</svg>
