<svg width="16" height="16" viewBox="0 0 16 16" fill="none" xmlns="http://www.w3.org/2000/svg">
<path d="M8 8C9.65685 8 11 6.65685 11 5C11 3.34315 9.65685 2 8 2C6.34315 2 5 3.34315 5 5C5 6.65685 6.34315 8 8 8Z" fill="#C4CADA"/>
<path d="M14 13.25V14C14 14.1989 13.921 14.3897 13.7803 14.5303C13.6397 14.671 13.4489 14.75 13.25 14.75H2.75C2.55109 14.75 2.36032 14.671 2.21967 14.5303C2.07902 14.3897 2 14.1989 2 14V13.25C2 12.0565 2.47411 10.9119 3.31802 10.068C4.16193 9.22411 5.30653 8.75 6.5 8.75H9.5C10.6935 8.75 11.8381 9.22411 12.682 10.068C13.5259 10.9119 14 12.0565 14 13.25Z" fill="#99A1B7"/>
</svg>
