<svg width="168" height="28" viewBox="0 0 168 28" fill="none" xmlns="http://www.w3.org/2000/svg">
<g clip-path="url(#clip0_56_10116)">
<path d="M72.0713 6.89404H65.2324V20.5482H72.0713C74.31 20.5482 76.1331 18.7252 76.1331 16.4865C76.1331 15.4191 75.7175 14.4508 75.0374 13.7235C75.7128 12.9962 76.1331 12.0279 76.1331 10.9605C76.1331 8.72184 74.31 6.89877 72.0713 6.89877V6.89404ZM72.0713 17.9506H67.8301V15.0223H72.0713C72.879 15.0223 73.5355 15.6788 73.5355 16.4865C73.5355 17.2941 72.879 17.9506 72.0713 17.9506ZM72.0713 12.4247H67.8301V9.49642H72.0713C72.879 9.49642 73.5355 10.1529 73.5355 10.9605C73.5355 11.7682 72.879 12.4247 72.0713 12.4247Z" fill="white"/>
<path d="M149.698 11.9382C149.698 9.15636 147.436 6.89404 144.654 6.89404H138.906V20.5482H141.504V16.9871H143.979L146.359 20.5813H149.472L146.746 16.5195C148.48 15.7213 149.689 13.9691 149.689 11.9382H149.698ZM144.654 14.3847H141.504V9.49169H144.654C146.005 9.49169 147.101 10.5922 147.101 11.9382C147.101 13.2843 146.005 14.3847 144.654 14.3847Z" fill="white"/>
<path d="M38.7407 20.5474C41.0408 20.5474 42.9158 18.6771 42.9158 16.3723V6.89319H40.3182V16.3723C40.3182 17.2413 39.6097 17.9497 38.7407 17.9497H37.5175C37.3521 17.9497 37.1868 17.9261 37.031 17.8836L36.6768 17.7844V20.4576C36.9554 20.5143 37.2341 20.5474 37.5175 20.5474H38.736H38.7407Z" fill="white"/>
<path d="M54.0152 6.89404C50.2509 6.89404 47.1904 9.95455 47.1904 13.7188C47.1904 17.483 50.2509 20.5435 54.0152 20.5435C57.7794 20.5435 60.8399 17.483 60.8399 13.7188C60.8399 9.95455 57.7794 6.89404 54.0152 6.89404ZM54.0152 17.9506C51.682 17.9506 49.7881 16.0519 49.7881 13.7235C49.7881 11.3951 51.6867 9.49642 54.0152 9.49642C56.3436 9.49642 58.2423 11.3951 58.2423 13.7235C58.2423 16.0519 56.3436 17.9506 54.0152 17.9506Z" fill="white"/>
<path d="M89.5225 17.1993C88.8141 17.6905 87.9828 17.9503 87.1138 17.9503C84.7806 17.9503 82.8867 16.0516 82.8867 13.7232C82.8867 11.3947 84.7854 9.49609 87.1138 9.49609C87.9262 9.49609 88.7102 9.72752 89.3903 10.162L90.486 10.861L91.8888 8.67429L90.793 7.97528C89.6973 7.27155 88.4221 6.89844 87.1138 6.89844C83.3496 6.89844 80.2891 9.95894 80.2891 13.7232C80.2891 17.4874 83.3496 20.5479 87.1138 20.5479C88.5118 20.5479 89.8579 20.1276 91.0008 19.3341L92.0682 18.5926L90.5852 16.4578L89.5178 17.1993H89.5225Z" fill="white"/>
<path d="M160.481 6.89404C156.717 6.89404 153.656 9.95455 153.656 13.7188C153.656 17.483 156.717 20.5435 160.481 20.5435C164.245 20.5435 167.306 17.483 167.306 13.7188C167.306 9.95455 164.245 6.89404 160.481 6.89404ZM160.481 17.9506C158.148 17.9506 156.254 16.0519 156.254 13.7235C156.254 11.3951 158.153 9.49642 160.481 9.49642C162.809 9.49642 164.708 11.3951 164.708 13.7235C164.708 16.0519 162.809 17.9506 160.481 17.9506Z" fill="white"/>
<path d="M96.04 20.5482H105.722V17.9506H98.6377V15.2443H104.149V12.6467H98.6377V9.49169H105.722V6.89404H96.04V20.5482Z" fill="white"/>
<path d="M117.308 15.1451L111.896 6.89404H109.732V20.5482H112.33V12.2924L117.743 20.5482H119.906V6.89404H117.308V15.1451Z" fill="white"/>
<path d="M128.586 6.89404H123.424V9.49169H128.586V20.5482H131.184V9.49169H136.346V6.89404H131.184H128.586Z" fill="white"/>
</g>
<ellipse cx="13.7203" cy="13.7203" rx="13.7203" ry="13.7203" fill="white"/>
<path fill-rule="evenodd" clip-rule="evenodd" d="M15.3037 6.33276V15.3037H13.7206V15.3036H6.33203V13.7205H13.7206L13.7206 6.33276H15.3037ZM18.4698 18.4695H6.33203V20.0526H18.4698V20.0531H20.0529L20.0529 6.33276H18.4698V18.4695Z" fill="#0149B2"/>
<defs>
<clipPath id="clip0_56_10116">
<rect width="130.629" height="13.7203" fill="white" transform="translate(36.6768 6.86084)"/>
</clipPath>
</defs>
</svg>
