<svg width="16" height="16" viewBox="0 0 16 16" fill="none" xmlns="http://www.w3.org/2000/svg">
<path fill-rule="evenodd" clip-rule="evenodd" d="M6.35 1.5C3.67142 1.5 1.5 3.67142 1.5 6.35C1.5 9.02858 3.67142 11.2 6.35 11.2C9.02858 11.2 11.2 9.02858 11.2 6.35C11.2 3.67142 9.02858 1.5 6.35 1.5ZM0 6.35C0 2.84299 2.84299 0 6.35 0C9.85701 0 12.7 2.84299 12.7 6.35C12.7 7.83313 12.1915 9.1975 11.3394 10.2783L15.2807 14.2196C15.5736 14.5125 15.5736 14.9874 15.2807 15.2803C14.9878 15.5732 14.513 15.5732 14.2201 15.2803L10.2788 11.339C9.19793 12.1914 7.83336 12.7 6.35 12.7C2.84299 12.7 0 9.85701 0 6.35Z" fill="#4B5675"/>
</svg>
