<svg width="235" height="40" viewBox="0 0 235 40" fill="none" xmlns="http://www.w3.org/2000/svg">
<g clip-path="url(#clip0_56_9358)">
<path d="M101.232 10.4126H91.6259V29.5915H101.232C104.376 29.5915 106.937 27.0308 106.937 23.8863C106.937 22.387 106.353 21.027 105.398 20.0054C106.347 18.9837 106.937 17.6238 106.937 16.1245C106.937 12.98 104.376 10.4192 101.232 10.4192V10.4126ZM101.232 25.9428H95.2746V21.8297H101.232C102.366 21.8297 103.288 22.7518 103.288 23.8863C103.288 25.0207 102.366 25.9428 101.232 25.9428ZM101.232 18.181H95.2746V14.0679H101.232C102.366 14.0679 103.288 14.9901 103.288 16.1245C103.288 17.2589 102.366 18.181 101.232 18.181Z" fill="#0149B2"/>
<path d="M210.268 17.4977C210.268 13.5903 207.091 10.4126 203.183 10.4126H195.11V29.5915H198.758V24.5895H202.235L205.578 29.6379H209.95L206.122 23.9327C208.557 22.8116 210.255 20.3503 210.255 17.4977H210.268ZM203.183 20.9341H198.758V14.0613H203.183C205.081 14.0613 206.62 15.607 206.62 17.4977C206.62 19.3884 205.081 20.9341 203.183 20.9341Z" fill="#0149B2"/>
<path d="M54.4158 29.5903C57.6466 29.5903 60.2803 26.9632 60.2803 23.7258V10.4114H56.6316V23.7258C56.6316 24.9465 55.6365 25.9416 54.4158 25.9416H52.6976C52.4654 25.9416 52.2332 25.9084 52.0143 25.8487L51.5168 25.7094V29.4642C51.9082 29.5438 52.2996 29.5903 52.6976 29.5903H54.4092H54.4158Z" fill="#0149B2"/>
<path d="M75.8703 10.4126C70.583 10.4126 66.2841 14.7114 66.2841 19.9987C66.2841 25.286 70.583 29.5849 75.8703 29.5849C81.1576 29.5849 85.4564 25.286 85.4564 19.9987C85.4564 14.7114 81.1576 10.4126 75.8703 10.4126ZM75.8703 25.9428C72.5931 25.9428 69.9328 23.2759 69.9328 20.0054C69.9328 16.7348 72.5997 14.0679 75.8703 14.0679C79.1408 14.0679 81.8077 16.7348 81.8077 20.0054C81.8077 23.2759 79.1408 25.9428 75.8703 25.9428Z" fill="#0149B2"/>
<path d="M125.745 24.8876C124.749 25.5775 123.582 25.9424 122.361 25.9424C119.084 25.9424 116.424 23.2755 116.424 20.005C116.424 16.7344 119.091 14.0675 122.361 14.0675C123.502 14.0675 124.604 14.3926 125.559 15.0029L127.098 15.9848L129.068 12.9132L127.529 11.9314C125.99 10.9429 124.199 10.4188 122.361 10.4188C117.074 10.4188 112.775 14.7177 112.775 20.005C112.775 25.2923 117.074 29.5911 122.361 29.5911C124.325 29.5911 126.216 29.0007 127.821 27.8862L129.32 26.8446L127.237 23.846L125.738 24.8876H125.745Z" fill="#0149B2"/>
<path d="M225.414 10.4126C220.127 10.4126 215.828 14.7114 215.828 19.9987C215.828 25.286 220.127 29.5849 225.414 29.5849C230.701 29.5849 235 25.286 235 19.9987C235 14.7114 230.701 10.4126 225.414 10.4126ZM225.414 25.9428C222.137 25.9428 219.476 23.2759 219.476 20.0054C219.476 16.7348 222.143 14.0679 225.414 14.0679C228.684 14.0679 231.351 16.7348 231.351 20.0054C231.351 23.2759 228.684 25.9428 225.414 25.9428Z" fill="#0149B2"/>
<path d="M134.9 29.5915H148.499V25.9428H138.548V22.1415H146.29V18.4928H138.548V14.0613H148.499V10.4126H134.9V29.5915Z" fill="#0149B2"/>
<path d="M164.772 22.0022L157.17 10.4126H154.131V29.5915H157.78V17.9953L165.383 29.5915H168.421V10.4126H164.772V22.0022Z" fill="#0149B2"/>
<path d="M180.615 10.4126H173.364V14.0613H180.615V29.5915H184.263V14.0613H191.514V10.4126H184.263H180.615Z" fill="#0149B2"/>
</g>
<ellipse cx="19.2718" cy="20" rx="19.2718" ry="19.2718" fill="url(#paint0_linear_56_9358)"/>
<path fill-rule="evenodd" clip-rule="evenodd" d="M21.4953 9.62366L21.4953 22.2244H19.2717V22.2242H8.89399V20.0005H19.2717L19.2717 9.62366L21.4953 9.62366ZM25.9428 26.6711H8.89399V28.8948H25.9428V28.8954H28.1665V9.62366L25.9428 9.62366L25.9428 26.6711Z" fill="white"/>
<defs>
<linearGradient id="paint0_linear_56_9358" x1="0.271218" y1="0.728271" x2="38.8148" y2="39.2719" gradientUnits="userSpaceOnUse">
<stop stop-color="#0050B9"/>
<stop offset="1" stop-color="#297CE5"/>
</linearGradient>
<clipPath id="clip0_56_9358">
<rect width="183.483" height="19.2718" fill="white" transform="translate(51.5168 10.366)"/>
</clipPath>
</defs>
</svg>
